<?xml version="1.0" standalone="no"?>
<!DOCTYPE svg PUBLIC "-//W3C//DTD SVG 20010904//EN"
 "http://www.w3.org/TR/2001/REC-SVG-20010904/DTD/svg10.dtd">
<svg version="1.0" xmlns="http://www.w3.org/2000/svg"
 width="512.000000pt" height="512.000000pt" viewBox="0 0 512.000000 512.000000"
 preserveAspectRatio="xMidYMid meet">

<g transform="translate(0.000000,512.000000) scale(0.100000,-0.100000)"
fill="#000000" stroke="none">
<path d="M2350 5109 c-1068 -94 -1954 -823 -2249 -1850 -164 -571 -120 -1186
123 -1739 231 -524 654 -971 1170 -1235 975 -498 2153 -324 2938 434 661 637
929 1570 708 2461 -233 939 -985 1669 -1936 1879 -214 48 -540 69 -754 50z
m413 -969 c29 -11 72 -36 95 -55 l41 -36 53 41 c95 72 203 92 234 45 14 -21
15 -31 6 -51 -12 -25 -29 -34 -100 -53 -40 -11 -112 -70 -112 -91 0 -6 88 -10
228 -10 283 -1 316 -10 363 -102 16 -31 19 -59 19 -168 l0 -130 186 0 c209 0
235 -6 281 -67 52 -67 48 -96 -81 -600 -64 -249 -126 -474 -140 -500 -40 -79
-100 -139 -179 -178 -67 -33 -119 -44 -747 -160 -371 -69 -682 -128 -691 -130
-9 -3 -27 -17 -40 -31 -19 -20 -24 -37 -24 -76 0 -43 4 -53 33 -79 l32 -29
824 0 c780 0 825 -1 846 -18 25 -20 30 -63 10 -87 -11 -13 -117 -15 -853 -15
-832 0 -841 0 -884 21 -115 56 -163 189 -109 305 29 63 85 110 154 130 28 9
52 18 52 21 0 10 -582 1507 -598 1538 -26 51 -54 84 -94 110 -65 43 -135 55
-329 55 -198 0 -213 4 -207 64 5 49 31 56 218 56 187 0 273 -14 351 -57 71
-38 150 -127 185 -207 l28 -66 198 0 198 0 1 123 c0 67 6 137 12 155 14 39 61
89 96 105 16 7 119 14 270 17 l244 5 -28 33 c-31 37 -82 66 -134 76 -44 8 -61
23 -61 53 0 66 51 81 153 43z m-143 -2734 c150 -75 170 -277 40 -389 -146
-125 -374 -29 -388 163 -5 73 11 122 56 172 79 88 186 108 292 54z m953 -4
c58 -31 103 -91 118 -159 10 -40 9 -59 -5 -106 -42 -144 -197 -216 -331 -153
-88 40 -135 114 -135 211 0 67 20 118 63 163 81 84 186 100 290 44z"/>
<path d="M2350 3790 c-18 -18 -20 -33 -20 -140 l0 -120 255 0 255 0 0 140 0
140 -235 0 c-222 0 -236 -1 -255 -20z"/>
<path d="M2960 3670 l0 -140 255 0 255 0 0 124 c0 118 -1 126 -22 140 -19 13
-61 16 -255 16 l-233 0 0 -140z"/>
<path d="M1864 3393 c38 -101 519 -1339 521 -1341 2 -2 52 6 111 17 60 11 269
50 464 86 529 98 610 115 641 131 49 25 99 75 124 124 13 26 75 250 138 498
98 383 113 453 103 473 l-12 24 -1048 3 c-996 2 -1048 1 -1042 -15z"/>
<path d="M2475 1312 c-54 -18 -85 -60 -85 -117 0 -66 51 -115 120 -115 63 0
120 58 120 122 0 36 -37 88 -75 104 -37 15 -48 16 -80 6z"/>
<path d="M3403 1305 c-39 -17 -63 -61 -63 -116 0 -93 116 -145 189 -83 62 52
58 147 -8 191 -39 26 -72 28 -118 8z"/>
</g>
</svg>
